<mxfile host="app.diagrams.net" modified="2022-09-12T05:58:02.153Z" agent="5.0 (Windows NT 10.0; Win64; x64) AppleWebKit/537.36 (KHTML, like Gecko) Chrome/104.0.0.0 Safari/537.36" etag="hcmiEV5maEVptgfvpskv" version="20.3.0" type="github" pages="2">
  <diagram id="NFTLbqO-WQb6DqNa27zx" name="XXX Customer Journey">
    <mxGraphModel dx="1221" dy="654" grid="1" gridSize="10" guides="1" tooltips="1" connect="1" arrows="1" fold="1" page="1" pageScale="1" pageWidth="1169" pageHeight="827" math="0" shadow="0">
      <root>
        <mxCell id="0" />
        <mxCell id="1" parent="0" />
        <mxCell id="CvH_J8DFizbyk-mOEBhl-1" value="&lt;h1&gt;XXX Customer Journey&lt;/h1&gt;&lt;p&gt;定义基于xxx的客户engagement flow，针对flow中的业务点，梳理分析点，确定整体分析框架&lt;/p&gt;" style="text;html=1;strokeColor=none;fillColor=none;spacing=5;spacingTop=-20;whiteSpace=wrap;overflow=hidden;rounded=0;" parent="1" vertex="1">
          <mxGeometry x="10" y="10" width="1150" height="80" as="geometry" />
        </mxCell>
        <mxCell id="ck5TydxHsIJJEnThvY5n-1" value="" style="rounded=1;whiteSpace=wrap;html=1;" vertex="1" parent="1">
          <mxGeometry x="20" y="160" width="120" height="340" as="geometry" />
        </mxCell>
        <mxCell id="ck5TydxHsIJJEnThvY5n-2" value="" style="endArrow=classic;startArrow=classic;html=1;rounded=0;" edge="1" parent="1">
          <mxGeometry width="50" height="50" relative="1" as="geometry">
            <mxPoint x="180" y="129" as="sourcePoint" />
            <mxPoint x="490" y="130" as="targetPoint" />
          </mxGeometry>
        </mxCell>
        <mxCell id="ck5TydxHsIJJEnThvY5n-5" value="首次触达" style="edgeLabel;html=1;align=center;verticalAlign=middle;resizable=0;points=[];" vertex="1" connectable="0" parent="ck5TydxHsIJJEnThvY5n-2">
          <mxGeometry x="0.1179" y="2" relative="1" as="geometry">
            <mxPoint x="-23" y="-8" as="offset" />
          </mxGeometry>
        </mxCell>
        <mxCell id="ck5TydxHsIJJEnThvY5n-4" value="" style="rounded=0;whiteSpace=wrap;html=1;" vertex="1" parent="1">
          <mxGeometry x="180" y="160" width="310" height="340" as="geometry" />
        </mxCell>
        <mxCell id="ck5TydxHsIJJEnThvY5n-6" value="" style="endArrow=classic;startArrow=classic;html=1;rounded=0;" edge="1" parent="1">
          <mxGeometry width="50" height="50" relative="1" as="geometry">
            <mxPoint x="10" y="129.9999999999999" as="sourcePoint" />
            <mxPoint x="150" y="130" as="targetPoint" />
          </mxGeometry>
        </mxCell>
        <mxCell id="ck5TydxHsIJJEnThvY5n-7" value="Audience Selection" style="edgeLabel;html=1;align=center;verticalAlign=middle;resizable=0;points=[];" vertex="1" connectable="0" parent="ck5TydxHsIJJEnThvY5n-6">
          <mxGeometry x="0.1179" y="2" relative="1" as="geometry">
            <mxPoint x="-9" y="-8" as="offset" />
          </mxGeometry>
        </mxCell>
      </root>
    </mxGraphModel>
  </diagram>
  <diagram id="K6xnZfSe4j9sOwhgyYzy" name="Analytical Framework">
    <mxGraphModel dx="1038" dy="556" grid="1" gridSize="10" guides="1" tooltips="1" connect="1" arrows="1" fold="1" page="1" pageScale="1" pageWidth="1169" pageHeight="827" math="0" shadow="0">
      <root>
        <mxCell id="0" />
        <mxCell id="1" parent="0" />
        <mxCell id="KYi-vEkoNcUP-nL2LZJw-1" value="&lt;h1&gt;&lt;span style=&quot;background-color: initial;&quot;&gt;Analytical Framework&lt;/span&gt;&lt;/h1&gt;&lt;h1&gt;&lt;span style=&quot;background-color: initial; font-size: 12px; font-weight: normal;&quot;&gt;定义基于xxx的客户engagement flow，针对flow中的业务点，梳理分析点，确定整体分析框架&lt;/span&gt;&lt;br&gt;&lt;/h1&gt;" style="text;html=1;strokeColor=none;fillColor=none;spacing=5;spacingTop=-20;whiteSpace=wrap;overflow=hidden;rounded=0;" parent="1" vertex="1">
          <mxGeometry x="10" y="10" width="1150" height="120" as="geometry" />
        </mxCell>
      </root>
    </mxGraphModel>
  </diagram>
</mxfile>
